<?xml version="1.0" encoding="iso-8859-1"?>
<!-- Generator: Adobe Illustrator 16.0.0, SVG Export Plug-In . SVG Version: 6.00 Build 0)  -->
<!DOCTYPE svg PUBLIC "-//W3C//DTD SVG 1.1//EN" "http://www.w3.org/Graphics/SVG/1.1/DTD/svg11.dtd">
<svg version="1.1" id="Capa_1" xmlns="http://www.w3.org/2000/svg" xmlns:xlink="http://www.w3.org/1999/xlink" x="0px" y="0px"
	 width="30.878px" height="30.878px" viewBox="0 0 30.878 30.878" style="enable-background:new 0 0 30.878 30.878;"
	 xml:space="preserve">
<g>
	<g>
		<polygon points="20.432,25.19 30.032,17.19 10.833,17.19 		"/>
		<polygon points="20.432,26.485 9.993,17.788 9.993,29.898 30.878,29.898 30.878,17.781 		"/>
		<path d="M2.195,19.11V2.5c0.628-0.21,2.338-0.705,4.447-0.705c2.771,0,5.151,0.837,7.095,2.471v9.915l0.481-0.529v2.141h0.271
			v-2.141l0.479,0.529V4.267c1.945-1.634,4.326-2.471,7.097-2.471c2.1,0,3.816,0.496,4.447,0.704v13.294v0.054h1.941
			c0-0.018,0-0.037,0-0.054c0-4.758,0-10.781,0-11.291c0-0.378-0.43-0.626-1.126-0.777V1.934l-0.261-0.103
			c-0.088-0.033-2.192-0.851-5.004-0.851c-3.008,0-5.602,0.917-7.71,2.726c-2.109-1.809-4.701-2.726-7.71-2.726
			c-2.811,0-4.916,0.818-5.004,0.853L1.379,1.934v1.66C0.529,3.752,0,4.038,0,4.502C0,6.922,0,21.61,0,21.61h9.014v-2.863
			C8.036,18.577,7,18.46,5.96,18.46C4.534,18.46,3.271,18.679,2.195,19.11z"/>
	</g>
</g>
<g>
</g>
<g>
</g>
<g>
</g>
<g>
</g>
<g>
</g>
<g>
</g>
<g>
</g>
<g>
</g>
<g>
</g>
<g>
</g>
<g>
</g>
<g>
</g>
<g>
</g>
<g>
</g>
<g>
</g>
</svg>
