<?xml version="1.0" encoding="iso-8859-1"?>
<!-- Generator: Adobe Illustrator 19.0.0, SVG Export Plug-In . SVG Version: 6.00 Build 0)  -->
<svg version="1.1" id="Layer_1" xmlns="http://www.w3.org/2000/svg" xmlns:xlink="http://www.w3.org/1999/xlink" x="0px" y="0px"
	 viewBox="0 0 300 300" style="enable-background:new 0 0 300 300;" xml:space="preserve">
<g>
	<g>
		<g>
			<path d="M111.29,87.097h-6.561c9.89-7.989,16.239-20.197,16.239-33.871V38.71c0-21.344-17.366-38.71-38.71-38.71h-9.677
				c-21.344,0-38.71,17.366-38.71,38.71v14.516c0,13.674,6.348,25.882,16.239,33.871h-6.561C19.539,87.097,0,106.631,0,130.645
				v48.387c0,16.011,13.021,29.032,29.032,29.032V300h96.774v-91.935c16.011,0,29.032-13.021,29.032-29.032v-48.387
				C154.839,106.631,135.3,87.097,111.29,87.097z M43.548,38.71c0-16.012,13.021-29.033,29.033-29.033h9.677
				c16.011,0,29.032,13.021,29.032,29.032v7.873c-1.185-1.002-2.095-2.337-2.497-3.939l-0.14-0.556
				c-1.916-7.689-8.792-13.055-16.718-13.055H62.903c-7.926,0-14.802,5.366-16.713,13.035l-0.15,0.595
				c-0.397,1.592-1.306,2.923-2.492,3.919V38.71z M43.81,57.256c5.637-1.747,10.127-6.276,11.613-12.227l0.15-0.595
				c0.842-3.373,3.856-5.724,7.331-5.724h29.032c3.474,0,6.489,2.352,7.335,5.744l0.14,0.556c1.49,5.971,5.981,10.5,11.618,12.247
				c-2.003,16.781-16.297,29.84-33.61,29.84S45.813,74.032,43.81,57.256z M99.304,96.774l-4.81,12.019l-4.645-3.097l8.928-8.922
				H99.304z M85.093,96.774l-4.839,4.839h-5.67l-4.839-4.839H85.093z M64.988,105.701l-4.645,3.097l-4.81-12.024h0.528
				L64.988,105.701z M29.032,198.387c-10.674,0-19.355-8.681-19.355-19.355v-9.677h19.355V198.387z M72.581,290.323H38.71v-9.677
				h33.871V290.323z M116.129,290.323H82.258v-9.677h33.871V290.323z M116.129,270.968H82.258v-53.226h-9.677v53.226H38.71v-72.581
				h77.419V270.968z M145.161,179.032c0,10.674-8.68,19.355-19.355,19.355v-29.032h19.355V179.032z M145.16,159.677h-19.354v-38.71
				h-9.677v67.742H38.71v-67.742h-9.677v38.71H9.677v-29.032c0-18.673,15.194-33.871,33.871-33.871h1.563l10.674,26.69
				l18.261-12.174h6.75l18.256,12.174l10.674-26.69h1.563c18.677,0,33.871,15.198,33.871,33.871V159.677z"/>
			<path d="M164.516,0v300H300V0H164.516z M290.323,290.323H174.194v-87.097h116.129V290.323z M290.323,193.549H174.194v-87.097
				h116.129V193.549z M290.323,96.774H174.194V9.677h116.129V96.774z"/>
			<path d="M208.065,14.516h-29.032v77.419h29.032V14.516z M198.387,82.258h-9.677V24.194h9.677V82.258z"/>
			<path d="M208.064,208.065h-29.032v77.419h29.032V208.065z M198.387,275.807h-9.677v-58.065h9.677V275.807z"/>
			<path d="M241.935,208.065h-29.032v77.419h29.032V208.065z M232.258,275.807h-9.677v-58.065h9.677V275.807z"/>
			<path d="M275.806,208.065h-29.032v77.419h29.032V208.065z M266.129,275.807h-9.677v-58.065h9.677V275.807z"/>
			<path d="M208.065,111.29h-29.032v77.419h29.032V111.29z M198.387,179.033h-9.677v-58.065h9.677V179.033z"/>
			<path d="M241.935,111.29h-29.032v77.419h29.032V111.29z M232.258,179.032h-9.677v-58.065h9.677V179.032z"/>
			<path d="M257.395,85.8l-16.694-72.334l-28.747,7.181l16.694,72.334L257.395,85.8z M233.487,25.244l12.339,53.473l-9.963,2.497
				L223.524,27.74L233.487,25.244z"/>
		</g>
	</g>
</g>
<g>
</g>
<g>
</g>
<g>
</g>
<g>
</g>
<g>
</g>
<g>
</g>
<g>
</g>
<g>
</g>
<g>
</g>
<g>
</g>
<g>
</g>
<g>
</g>
<g>
</g>
<g>
</g>
<g>
</g>
</svg>
